<?xml version="1.0" encoding="iso-8859-1"?>
<!-- Generator: Adobe Illustrator 16.0.0, SVG Export Plug-In . SVG Version: 6.00 Build 0)  -->
<!DOCTYPE svg PUBLIC "-//W3C//DTD SVG 1.1//EN" "http://www.w3.org/Graphics/SVG/1.1/DTD/svg11.dtd">
<svg version="1.1" id="Capa_1" xmlns="http://www.w3.org/2000/svg" xmlns:xlink="http://www.w3.org/1999/xlink" x="0px" y="0px"
	 width="49.588px" height="49.588px" viewBox="0 0 49.588 49.588" style="enable-background:new 0 0 49.588 49.588;"
	 xml:space="preserve">
<g>
	<g>
		<path d="M46.76,24.801c-0.34-0.502-1.191-0.831-1.752-0.16c-0.191,0.244-0.29,0.386-0.324,0.544
			c-0.008,0.026-0.007,0.043-0.011,0.065c-0.002,0.008-0.009,0.021-0.011,0.029c-0.016,0.059-0.02,0.1-0.023,0.144
			c-0.099-0.016-0.541-0.107-1.025-0.563c-0.284-0.285-0.562-0.696-0.838-1.262c-0.184-0.429-0.338-0.961-0.443-1.617
			c0.016,0.02,0.025,0.039,0.04,0.058c0.06,0.074,0.126,0.145,0.196,0.212c0.242,0.407,0.644,0.792,1.271,0.601
			c1.109-0.329,1.064-1.385,0.239-2.384c-0.126-0.21-0.278-0.417-0.47-0.612c-0.238-0.366-0.442-0.804-0.619-1.335h-0.813
			c-0.192-0.213-0.388-0.441-0.577-0.701c-1.061-1.266-2.328-3.138-4.662-5.094c0,0-0.187-0.126-0.375-0.247
			c-0.188-0.12-0.375-0.24-0.375-0.24c-0.015-0.007-0.033-0.017-0.047-0.024c0.213,0.05,0.435,0.103,0.489,0.115
			c1.095,0.206,1.779,0.253,2.126,0.306c0.083,0.013,0.191,0.019,0.317,0.019c0.377-0.002,0.911-0.069,1.409-0.215
			c0.586-0.181,1.14-0.493,1.295-1.066c0.021-0.082,0.035-0.169,0.041-0.262c0.035-0.913-0.84-1.703-1.487-1.843
			c-0.075-0.015-0.153-0.022-0.233-0.021c-0.559,0.002-1.188,0.383-1.119,1.146c0.039,0.607,0.395,0.935,0.395,0.935
			s-0.414,0.281-1.217,0.218c-0.316-0.01-0.678-0.068-1.102-0.189c-0.705-0.201-1.582-0.573-2.703-1.175
			c0.015-0.029,0.83,0.359,1.478,0.224c0.296-0.062,0.556-0.232,0.69-0.6c0.049-0.145,0.071-0.285,0.072-0.419
			c0-0.401-0.207-0.744-0.555-1.001c-0.475-0.325-1.217-0.451-1.98-0.358C33.734,8.076,33.383,8.095,33,8.087
			c-0.384-0.008-0.799-0.045-1.25-0.106c-1.641-0.158-3.871-0.574-6.9-0.308c0,0-0.221,0.043-0.439,0.092
			c-0.218,0.049-0.436,0.098-0.436,0.098c-0.015,0.004-0.034,0.011-0.05,0.015c0.186-0.115,0.38-0.236,0.428-0.266
			c0.229-0.158,0.435-0.304,0.617-0.438c0.545-0.402,0.889-0.691,1.1-0.847c0.272-0.191,0.75-0.763,1.082-1.367
			c0.328-0.617,0.502-1.329,0.004-1.885c-0.622-0.653-1.795-0.608-2.352-0.247c-0.063,0.042-0.124,0.093-0.18,0.149
			C24.23,3.375,24.055,4.09,24.641,4.58c0.457,0.402,0.939,0.384,0.939,0.384s-0.094,0.492-0.706,1.013
			c-0.23,0.218-0.527,0.433-0.911,0.646c-0.64,0.357-1.523,0.711-2.744,1.071c0.002-0.001,0.102-0.048,0.266-0.126
			c0.158-0.08,0.364-0.198,0.556-0.351c0.381-0.307,0.727-0.755,0.447-1.316c-0.204-0.412-0.538-0.625-0.933-0.668
			c-0.131-0.014-0.27-0.01-0.413,0.012c-0.428,0.057-0.877,0.334-1.275,0.725c-0.133,0.13-0.26,0.272-0.379,0.424
			c-0.399,0.49-0.934,1.063-1.667,1.595c-1.266,1.061-3.138,2.328-5.094,4.662c0,0-0.126,0.187-0.247,0.375
			c-0.12,0.188-0.24,0.376-0.24,0.376c-0.007,0.014-0.017,0.032-0.024,0.047c0.05-0.213,0.103-0.435,0.115-0.49
			c0.206-1.095,0.253-1.779,0.306-2.126c0.013-0.083,0.019-0.191,0.019-0.317c-0.002-0.377-0.069-0.911-0.215-1.409
			c-0.181-0.586-0.493-1.14-1.066-1.295c-0.082-0.021-0.169-0.036-0.262-0.041C10.2,7.736,9.41,8.611,9.27,9.258
			C9.253,9.33,9.246,9.409,9.247,9.488c0.002,0.559,0.383,1.188,1.146,1.12c0.607-0.039,0.935-0.395,0.935-0.395
			s0.281,0.414,0.218,1.217c-0.01,0.316-0.068,0.677-0.189,1.101c-0.201,0.705-0.573,1.582-1.175,2.704
			c-0.029-0.015,0.359-0.83,0.224-1.478c-0.062-0.296-0.232-0.556-0.6-0.69c-0.145-0.049-0.285-0.072-0.419-0.073
			c-0.401,0-0.744,0.207-1.001,0.555c-0.325,0.474-0.451,1.216-0.358,1.98c0.051,0.324,0.07,0.676,0.062,1.059
			c-0.008,0.384-0.045,0.799-0.106,1.25c-0.158,1.641-0.574,3.871-0.308,6.9c0,0,0.043,0.221,0.092,0.439s0.098,0.437,0.098,0.437
			c0.004,0.015,0.011,0.033,0.015,0.05c-0.115-0.187-0.236-0.38-0.266-0.429c-0.158-0.229-0.304-0.435-0.438-0.616
			c-0.402-0.546-0.691-0.89-0.847-1.101c-0.191-0.272-0.763-0.75-1.367-1.082c-0.617-0.327-1.329-0.502-1.885-0.003
			c-0.653,0.622-0.608,1.795-0.247,2.352c0.042,0.063,0.093,0.124,0.149,0.18c0.398,0.394,1.112,0.568,1.602-0.018
			c0.402-0.457,0.384-0.939,0.384-0.939s0.492,0.094,1.013,0.706c0.073,0.077,0.145,0.161,0.217,0.253
			c0.504,0.646,0.997,1.693,1.5,3.402c-0.001-0.002-0.048-0.103-0.126-0.267c-0.08-0.158-0.198-0.363-0.351-0.556
			c-0.31-0.381-0.759-0.728-1.32-0.446c-0.412,0.205-0.625,0.539-0.668,0.934c-0.014,0.131-0.01,0.27,0.012,0.412
			c0.057,0.429,0.334,0.878,0.725,1.275c0.13,0.133,0.272,0.26,0.424,0.379c0.49,0.399,1.063,0.935,1.595,1.668
			c1.061,1.266,2.328,3.138,4.662,5.094c0,0,0.187,0.125,0.375,0.246s0.376,0.24,0.376,0.24c0.014,0.008,0.032,0.018,0.047,0.024
			c-0.213-0.05-0.435-0.103-0.49-0.115c-1.095-0.206-1.779-0.253-2.126-0.306c-0.083-0.014-0.191-0.02-0.317-0.02
			c-0.377,0.002-0.911,0.069-1.409,0.215c-0.586,0.182-1.14,0.494-1.295,1.066c-0.021,0.082-0.036,0.169-0.041,0.262
			c-0.035,0.914,0.84,1.703,1.487,1.844c0.075,0.015,0.153,0.021,0.233,0.021c0.559-0.002,1.188-0.383,1.12-1.146
			c-0.039-0.607-0.395-0.936-0.395-0.936s0.414-0.281,1.217-0.218c0.316,0.01,0.677,0.067,1.101,0.188
			c0.705,0.201,1.582,0.573,2.704,1.176c-0.015,0.029-0.83-0.359-1.478-0.225c-0.296,0.062-0.556,0.232-0.69,0.6
			c-0.049,0.146-0.072,0.285-0.073,0.42c0,0.4,0.207,0.744,0.555,1.001c0.474,0.325,1.216,0.45,1.98,0.358
			c0.324-0.052,0.676-0.07,1.059-0.062c0.384,0.008,0.799,0.045,1.25,0.105c1.641,0.158,3.871,0.574,6.9,0.309
			c0,0,0.221-0.043,0.439-0.092c0.219-0.049,0.436-0.099,0.436-0.099c0.016-0.004,0.035-0.011,0.051-0.015
			c-0.186,0.115-0.38,0.236-0.428,0.266c-0.229,0.158-0.436,0.305-0.617,0.438c-0.546,0.401-0.89,0.69-1.101,0.847
			c-0.272,0.191-0.75,0.764-1.082,1.367c-0.327,0.617-0.502,1.329-0.003,1.885c0.622,0.653,1.795,0.608,2.352,0.247
			c0.063-0.042,0.124-0.093,0.18-0.149c0.393-0.397,0.568-1.111-0.018-1.602c-0.457-0.402-0.939-0.384-0.939-0.384
			s0.094-0.492,0.706-1.013c0.131-0.125,0.29-0.248,0.47-0.371c0.654-0.451,1.65-0.896,3.187-1.348
			c-0.002,0.002-0.103,0.049-0.267,0.127c-0.158,0.079-0.363,0.197-0.556,0.351c-0.381,0.307-0.728,0.755-0.446,1.315
			c0.203,0.412,0.537,0.625,0.933,0.668c0.131,0.015,0.271,0.01,0.413-0.012c0.428-0.057,0.876-0.334,1.275-0.725
			c0.133-0.131,0.26-0.272,0.379-0.424c0.398-0.49,0.934-1.063,1.666-1.596c1.267-1.061,3.139-2.328,5.094-4.662
			c0,0,0.127-0.187,0.248-0.375c0.119-0.188,0.24-0.375,0.24-0.375c0.006-0.015,0.017-0.033,0.023-0.048
			c-0.05,0.214-0.104,0.435-0.115,0.49c-0.205,1.095-0.253,1.778-0.306,2.126c-0.013,0.083-0.019,0.191-0.019,0.316
			c0.002,0.377,0.068,0.912,0.215,1.41c0.181,0.586,0.492,1.14,1.065,1.295c0.082,0.021,0.169,0.035,0.263,0.041
			c0.912,0.035,1.703-0.84,1.842-1.487c0.016-0.075,0.022-0.153,0.021-0.233c-0.002-0.559-0.383-1.188-1.146-1.119
			c-0.606,0.038-0.935,0.395-0.935,0.395s-0.28-0.414-0.218-1.217c0.01-0.316,0.068-0.678,0.189-1.102
			c0.201-0.705,0.572-1.582,1.174-2.704c0.029,0.015-0.358,0.83-0.223,1.479c0.062,0.296,0.231,0.556,0.6,0.69
			c0.145,0.049,0.285,0.071,0.419,0.072c0.401,0,0.743-0.207,1.001-0.555c0.324-0.475,0.451-1.217,0.357-1.98
			c-0.051-0.324-0.07-0.676-0.062-1.059c0.008-0.385,0.045-0.799,0.106-1.25c0.021-0.223,0.047-0.457,0.076-0.7h1.307
			c-0.465-1.394-0.758-3.394-1.073-6.204L41.9,24.771l-0.135-0.749c-0.002-0.004-0.004-0.01-0.004-0.015
			c0.096,0.157,0.188,0.304,0.213,0.345c0.004,0.007,0.01,0.012,0.014,0.019c0.002,0.003,0.006,0.01,0.008,0.013
			c0.589,0.856,1.064,1.418,1.264,1.687c0.191,0.272,0.764,0.75,1.367,1.082c0.617,0.328,1.329,0.503,1.885,0.004
			c0.33-0.314,0.48-0.768,0.504-1.213C47.134,25.523,47.016,25.073,46.76,24.801z M40.062,31.314
			c-0.051,0.107-0.125,0.263-0.215,0.447c-0.188,0.365-0.388,0.881-0.693,1.338c-0.534,0.959-1.221,1.816-1.221,1.816l-0.313,0.417
			c0,0-0.341,0.377-0.853,0.942c-0.242,0.295-0.593,0.574-0.938,0.898c-0.343,0.333-0.744,0.643-1.156,0.941
			c-1.624,1.234-3.519,2.013-3.519,2.013s-0.258,0.095-0.645,0.236c-0.385,0.146-0.898,0.336-1.436,0.454
			c-0.53,0.14-1.061,0.279-1.471,0.322c-0.406,0.062-0.678,0.104-0.678,0.104s-0.514,0.086-0.516,0.07c0,0-0.508,0.025-1.268,0.063
			c-0.381,0.039-0.826-0.014-1.301-0.03c-0.238-0.012-0.483-0.024-0.733-0.037c-0.247-0.037-0.499-0.074-0.75-0.112
			c-1.011-0.119-1.99-0.412-2.719-0.628c-0.716-0.262-1.193-0.438-1.193-0.438s-0.067-0.018-0.174-0.07
			c-0.108-0.053-0.263-0.127-0.448-0.215c-0.365-0.189-0.88-0.389-1.337-0.693c-0.961-0.535-1.818-1.223-1.818-1.223l-0.417-0.312
			c0,0-0.377-0.342-0.942-0.852c-0.295-0.244-0.574-0.594-0.899-0.939c-0.333-0.342-0.643-0.744-0.941-1.156
			c-1.234-1.624-2.013-3.52-2.014-3.52c0,0-0.094-0.258-0.236-0.644c-0.146-0.385-0.336-0.899-0.454-1.436
			c-0.14-0.53-0.279-1.062-0.323-1.472c-0.062-0.406-0.103-0.677-0.103-0.677s-0.086-0.514-0.07-0.516c0,0-0.026-0.507-0.064-1.269
			c-0.039-0.381,0.014-0.825,0.03-1.3c0.012-0.238,0.025-0.483,0.038-0.733c0.037-0.247,0.075-0.499,0.112-0.75
			c0.119-1.011,0.412-1.991,0.628-2.719c0.262-0.716,0.437-1.193,0.437-1.193s0.018-0.067,0.071-0.174
			c0.052-0.108,0.126-0.263,0.215-0.448c0.189-0.364,0.388-0.88,0.693-1.337c0.535-0.96,1.222-1.817,1.222-1.817l0.313-0.417
			c0,0,0.341-0.377,0.852-0.942c0.243-0.295,0.593-0.574,0.939-0.899c0.342-0.333,0.744-0.643,1.156-0.941
			c1.624-1.234,3.519-2.013,3.519-2.013s0.258-0.095,0.644-0.236c0.385-0.146,0.899-0.336,1.436-0.454
			c0.53-0.14,1.061-0.279,1.471-0.323c0.406-0.062,0.677-0.103,0.677-0.103s0.514-0.086,0.516-0.07c0,0,0.507-0.026,1.268-0.064
			c0.381-0.039,0.826,0.014,1.3,0.03c0.238,0.012,0.482,0.025,0.732,0.037c0.248,0.038,0.5,0.075,0.75,0.113
			c1.012,0.119,1.991,0.412,2.719,0.628c0.717,0.262,1.193,0.437,1.193,0.437s0.067,0.018,0.174,0.071
			c0.108,0.052,0.264,0.126,0.449,0.215c0.363,0.188,0.879,0.388,1.336,0.693c0.961,0.535,1.817,1.222,1.817,1.222l0.417,0.312
			c0,0,0.377,0.341,0.941,0.852c0.295,0.243,0.574,0.593,0.899,0.939c0.333,0.342,0.644,0.744,0.94,1.156
			c1.234,1.624,2.014,3.519,2.014,3.519s0.096,0.258,0.236,0.644c0.146,0.385,0.336,0.899,0.453,1.436
			c0.141,0.53,0.279,1.061,0.324,1.471c0.062,0.406,0.103,0.677,0.103,0.677s0.086,0.514,0.069,0.516c0,0,0.026,0.507,0.064,1.268
			c0.005,0.116,0.007,0.244,0.01,0.369c-0.008,0.289-0.025,0.599-0.039,0.931c-0.014,0.238-0.025,0.482-0.039,0.732
			c-0.037,0.248-0.074,0.5-0.113,0.75c-0.118,1.012-0.411,1.99-0.627,2.719c-0.262,0.717-0.438,1.193-0.438,1.193
			S40.116,31.207,40.062,31.314z"/>
		<path d="M24.794,9.582c-8.388,0-15.212,6.824-15.212,15.212s6.824,15.212,15.212,15.212c8.388,0,15.212-6.824,15.212-15.212
			S33.182,9.582,24.794,9.582z M24.794,39.195c-7.941,0-14.401-6.461-14.401-14.401c0-7.941,6.46-14.401,14.401-14.401
			c7.94,0,14.401,6.46,14.401,14.401C39.195,32.734,32.734,39.195,24.794,39.195z"/>
		<path d="M28.206,20.815c0-1.868-1.515-3.382-3.382-3.382c-1.868,0-3.382,1.514-3.382,3.382c0,1.42,0.875,2.636,2.117,3.137
			c-2.007,7.255,0,0-2.007,7.255c0.254,0,6.847,0,6.847,0s0,0-1.933-7.436C27.504,23.194,28.206,22.086,28.206,20.815z"/>
		<path d="M29.843,21.05c0-2.735-2.226-4.96-4.961-4.96c-2.735,0-4.961,2.225-4.961,4.96c0,1.348,0.874,2.731,1.722,3.61
			l-2.324,7.89h11.313l-2.274-8.07C29.29,23.459,29.843,22.185,29.843,21.05z M30.098,32.146H19.861l2.238-7.601l-0.085-0.085
			c-0.815-0.816-1.687-2.141-1.687-3.41c0-2.512,2.043-4.555,4.555-4.555c2.513,0,4.556,2.043,4.556,4.555
			c0,1.064-0.543,2.275-1.453,3.237l-0.08,0.083L30.098,32.146z"/>
		<path d="M24.794,0C11.123,0,0,11.123,0,24.794s11.123,24.794,24.794,24.794s24.794-11.123,24.794-24.794S38.465,0,24.794,0z
			 M24.794,48.777c-13.224,0-23.983-10.76-23.983-23.983c0-13.224,10.759-23.983,23.983-23.983
			c13.224,0,23.983,10.759,23.983,23.983C48.777,38.018,38.018,48.777,24.794,48.777z"/>
	</g>
	<g>
	</g>
	<g>
	</g>
	<g>
	</g>
	<g>
	</g>
	<g>
	</g>
	<g>
	</g>
	<g>
	</g>
	<g>
	</g>
	<g>
	</g>
	<g>
	</g>
	<g>
	</g>
	<g>
	</g>
	<g>
	</g>
	<g>
	</g>
	<g>
	</g>
</g>
<g>
</g>
<g>
</g>
<g>
</g>
<g>
</g>
<g>
</g>
<g>
</g>
<g>
</g>
<g>
</g>
<g>
</g>
<g>
</g>
<g>
</g>
<g>
</g>
<g>
</g>
<g>
</g>
<g>
</g>
</svg>
